<?xml version="1.0" standalone="no"?>
<!DOCTYPE svg PUBLIC "-//W3C//DTD SVG 20010904//EN"
 "http://www.w3.org/TR/2001/REC-SVG-20010904/DTD/svg10.dtd">
<svg version="1.0" xmlns="http://www.w3.org/2000/svg"
 width="900.000000pt" height="900.000000pt" viewBox="0 0 900.000000 900.000000"
 preserveAspectRatio="xMidYMid meet">
<metadata>
Created by potrace 1.10, written by Peter Selinger 2001-2011
</metadata>
<g transform="translate(0.000000,900.000000) scale(0.100000,-0.100000)"
fill="#000000" stroke="none">
<path d="M0 4500 l0 -4500 4500 0 4500 0 0 4500 0 4500 -1887 0 c-1037 0
-1884 -3 -1880 -6 3 -4 0 -22 -8 -41 -35 -83 1 -144 86 -145 51 -1 85 23 93
64 4 18 18 46 32 61 21 25 27 27 40 16 13 -10 15 -24 9 -63 -8 -61 -17 -80
-64 -131 -21 -22 -46 -60 -56 -85 -23 -56 -25 -58 -54 -62 -22 -3 -24 1 -28
42 -3 34 -10 51 -31 68 -117 99 -129 112 -142 151 -11 34 -11 49 -2 75 21 57
25 56 -144 56 -98 0 -153 -4 -149 -10 11 -17 -72 -94 -139 -129 -36 -18 -68
-42 -71 -52 -4 -11 -4 -48 -1 -82 3 -34 8 -176 11 -315 3 -140 10 -262 15
-271 8 -16 101 -18 1560 -18 1715 -1 1567 5 1601 -65 47 -95 53 -121 53 -212
0 -50 -4 -656 -8 -1346 -4 -690 -9 -2041 -10 -3001 -1 -1470 -3 -1749 -15
-1763 -10 -12 -17 -13 -27 -5 -7 6 -17 8 -22 6 -15 -10 -33 10 -44 49 -6 26
-10 1067 -12 3089 -1 2875 -2 3052 -19 3082 -21 39 -75 57 -151 50 -47 -4
-2710 -8 -4983 -7 -839 0 -973 -2 -1055 -16 -51 -9 -99 -21 -106 -27 -29 -24
-53 -68 -62 -119 -14 -70 -14 -1567 0 -1957 5 -161 7 -297 4 -302 -7 -11 -135
-12 -153 0 -11 7 -11 24 -2 92 19 149 31 1216 23 1981 l-4 297 40 58 c47 68
77 98 114 112 26 10 267 14 683 13 220 -1 1818 -9 2150 -12 260 -2 270 -1 286
18 14 18 17 67 23 346 4 178 5 334 1 344 -3 11 -25 29 -49 40 -52 25 -126 92
-126 115 0 16 -138 17 -2160 17 l-2160 0 0 -4500z m919 4375 c72 -36 198 -163
237 -240 49 -94 58 -147 40 -241 -8 -43 -28 -106 -44 -139 -32 -64 -129 -170
-202 -220 -43 -30 -43 -30 -189 -30 l-146 0 -74 45 c-159 97 -241 238 -241
415 0 121 27 204 94 290 41 52 60 68 127 104 79 43 119 51 239 47 91 -3 113
-7 159 -31z m7643 -2 c119 -46 218 -172 247 -315 42 -201 -24 -377 -183 -489
-75 -53 -172 -89 -240 -89 -88 0 -238 72 -303 145 -57 65 -102 160 -117 247
-7 42 -18 73 -27 78 -9 5 -210 10 -449 11 -238 1 -445 5 -459 9 -14 3 -26 13
-26 21 0 9 -13 15 -37 17 -36 3 -52 20 -42 46 4 11 51 14 242 15 130 1 257 4
282 6 25 3 148 10 274 15 214 9 231 12 253 32 12 11 26 31 29 42 7 21 54 88
83 116 36 35 156 99 216 114 42 11 210 -4 257 -21z m-5884 -84 c30 -15 58 -41
88 -83 81 -114 81 -114 126 -118 56 -5 318 8 340 17 9 4 29 28 44 53 60 105
131 152 231 152 107 -1 164 -43 216 -162 14 -31 33 -61 44 -66 25 -13 208 5
248 25 42 22 75 53 75 74 0 9 7 19 15 23 10 3 15 19 15 45 0 34 13 61 25 49
14 -14 32 -354 19 -367 -2 -3 -33 3 -68 12 -46 12 -104 17 -207 17 l-143 0
-33 -37 c-18 -21 -33 -41 -33 -44 0 -15 -98 -68 -136 -75 -60 -9 -115 20 -205
109 l-75 75 -183 1 c-101 1 -194 4 -207 7 -18 5 -29 -1 -46 -21 -98 -118 -166
-165 -237 -165 -49 0 -124 46 -196 119 -60 61 -60 62 -59 119 3 189 185 317
342 241z m-973 -29 c10 -11 24 -20 32 -20 16 0 16 2 -2 -50 -22 -61 -19 -94
12 -130 26 -31 28 -32 92 -28 58 4 69 2 94 -19 16 -12 37 -23 47 -23 10 0 21
-4 24 -9 12 -19 -44 -50 -153 -82 -79 -24 -207 25 -252 97 -18 31 -21 46 -16
107 4 63 31 147 53 170 14 14 51 7 69 -13z m4865 -193 c10 -23 30 -53 44 -66
13 -12 26 -32 29 -43 5 -18 2 -19 -26 -13 -60 13 -464 17 -555 5 -103 -14
-568 -26 -609 -16 -22 6 -24 9 -12 16 19 11 160 23 276 24 66 0 94 4 97 13 6
15 48 17 95 3 25 -7 40 -6 62 6 33 17 39 44 9 44 -14 0 -18 5 -13 16 4 11 12
14 27 9 29 -9 90 -8 161 4 33 5 94 10 135 11 41 1 109 7 150 14 113 20 109 21
130 -27z m-1388 -37 c-2 -25 -8 -49 -13 -54 -20 -21 -270 -33 -343 -17 -39 8
-41 20 -13 62 l23 34 114 11 c63 7 142 11 175 10 l60 -1 -3 -45z m768 0 c0 -5
-9 -10 -20 -10 -11 0 -20 5 -20 10 0 6 9 10 20 10 11 0 20 -4 20 -10z m-705
-78 c0 -18 -20 -15 -23 4 -3 10 1 15 10 12 7 -3 13 -10 13 -16z m-4437 -673
c3 -94 8 -109 36 -109 22 0 25 5 31 58 4 31 9 64 11 72 20 60 24 -116 23
-1130 0 -1030 -1 -1118 -17 -1149 -13 -26 -24 -35 -48 -37 l-30 -3 -14 77
c-20 109 -27 2296 -8 2290 8 -3 14 -28 16 -69z m7324 -33 c0 -19 7 -41 15 -48
13 -10 19 -8 35 12 10 13 18 35 16 48 -2 14 2 27 9 29 21 8 26 -127 16 -462
-6 -181 -7 -433 -4 -560 13 -425 -7 -2097 -25 -2126 -3 -5 -13 -9 -23 -9 -11
0 -21 -9 -24 -21 -4 -13 -12 -20 -24 -17 -16 3 -19 22 -25 228 -8 241 0 2933
9 2964 8 28 25 3 25 -38z m-1434 0 c607 -1 704 -4 712 -16 5 -8 10 -52 10 -97
0 -61 -4 -86 -16 -97 -8 -9 -17 -16 -19 -16 -12 0 -59 31 -70 46 -12 17 -35
20 -252 26 -271 7 -4610 11 -4622 4 -4 -3 -111 -6 -237 -7 -267 -2 -490 -11
-499 -21 -8 -8 -6 -986 4 -1558 8 -485 14 -453 -79 -448 l-55 3 1 100 c0 55 4
541 7 1080 l7 980 167 8 c93 4 754 9 1470 10 716 1 1305 6 1310 11 4 5 329 5
733 1 399 -3 1041 -7 1428 -9z m728 -294 c6 -4 13 -15 17 -24 9 -24 11 -5275
2 -5400 -7 -96 -10 -108 -26 -108 -11 0 -19 5 -19 10 0 6 -11 10 -25 10 -18 0
-26 -7 -31 -25 -3 -14 -10 -25 -16 -25 -6 0 -7 30 -3 78 4 42 5 142 3 222 -5
225 -4 2513 2 3948 l6 1294 24 14 c28 15 50 17 66 6z m-2881 -117 c1381 -4
2055 -2 2228 6 136 6 251 9 254 5 11 -11 32 -141 33 -202 0 -47 -5 -67 -20
-87 l-20 -26 27 -13 c27 -13 28 -15 35 -128 5 -63 5 -700 1 -1415 -4 -715 -6
-1363 -6 -1440 4 -569 0 -1667 -5 -1745 l-7 -95 -75 -7 c-41 -4 -928 -6 -1970
-4 -1042 2 -2151 -1 -2464 -6 -465 -7 -571 -7 -578 4 -12 19 -6 2707 7 2724 6
9 34 15 75 16 l65 3 0 -215 c0 -118 -2 -701 -3 -1295 -3 -1244 -17 -1110 108
-1101 321 25 2874 31 4200 10 539 -8 489 -23 502 147 11 157 12 277 6 2617 -5
1901 -7 2065 -22 2080 -15 16 -198 17 -2393 17 -2365 0 -2376 0 -2388 -20 -10
-15 -13 -200 -14 -810 -1 -434 -5 -792 -9 -797 -4 -4 -36 -8 -72 -10 l-65 -3
-3 865 c-1 476 0 880 3 897 l6 33 242 2 c133 2 265 2 292 0 28 -1 941 -5 2030
-7z m4188 -201 c34 -11 62 -32 101 -75 58 -65 81 -122 80 -199 -2 -112 -48
-176 -166 -236 -36 -18 -69 -41 -72 -51 -8 -28 -15 -374 -22 -973 -3 -305 -8
-563 -10 -572 -4 -15 -17 -18 -66 -18 l-60 0 6 763 c4 419 9 778 12 798 5 34
2 39 -48 82 -97 83 -125 181 -87 301 18 56 33 81 71 119 26 26 63 54 81 62 43
19 123 19 180 -1z m-8216 -71 c85 -58 132 -143 133 -237 0 -80 -27 -130 -114
-214 -57 -54 -74 -77 -88 -122 -10 -30 -18 -74 -18 -97 0 -23 -4 -45 -10 -48
-10 -6 -13 7 -14 65 -1 28 -5 36 -23 38 -17 3 -25 15 -38 57 -9 31 -24 59 -34
65 -42 22 -126 102 -150 142 -21 36 -25 55 -25 123 1 117 32 171 134 229 38
22 58 26 126 26 72 0 85 -3 121 -27z m2260 -234 c18 -24 47 -64 65 -89 84
-116 256 -309 477 -535 91 -93 213 -222 270 -285 57 -63 137 -149 178 -190 40
-41 83 -89 95 -106 104 -144 623 -676 673 -688 38 -10 57 5 219 163 352 343
329 318 496 536 46 61 87 112 90 115 3 3 19 23 36 45 16 22 36 48 44 59 36 47
128 145 325 346 117 118 240 253 275 300 74 98 305 335 341 348 13 5 81 12
150 16 148 9 144 11 124 -90 -7 -38 -19 -211 -26 -384 -6 -173 -15 -371 -18
-440 -3 -69 -3 -195 1 -280 15 -296 21 -2403 8 -2546 -7 -72 -13 -203 -14
-290 l-1 -159 -207 -3 -208 -2 -1 132 c0 73 -2 149 -5 168 -2 19 -6 607 -9
1305 -3 699 -8 1298 -11 1332 -6 66 -30 102 -57 86 -50 -28 -456 -446 -700
-721 -116 -131 -197 -213 -336 -342 -74 -68 -152 -147 -174 -175 -21 -27 -65
-78 -97 -112 -32 -33 -88 -102 -125 -152 -37 -50 -71 -91 -75 -91 -19 0 -176
149 -240 230 -72 90 -210 248 -295 340 -48 52 -105 116 -125 142 -63 79 -215
245 -511 556 -90 96 -176 189 -190 208 -15 19 -56 65 -92 102 -36 37 -82 88
-104 114 -79 98 -98 46 -77 -212 16 -202 32 -691 39 -1210 5 -311 2 -519 -11
-830 -14 -321 -15 -464 -8 -628 6 -142 6 -216 -1 -222 -5 -4 -122 -9 -260 -11
l-250 -4 -2 1050 c-1 578 -6 1516 -11 2085 -5 569 -7 1038 -5 1043 2 4 55 8
116 8 62 1 126 5 142 9 42 11 46 9 82 -41z m-2397 -469 c0 -16 -4 -30 -10 -30
-11 0 -14 43 -3 53 11 12 13 8 13 -23z m-119 -295 c6 -49 16 -96 22 -103 21
-26 -2 -21 -51 10 -28 18 -53 42 -56 53 -15 55 5 136 36 148 25 9 37 -19 49
-108z m139 -79 c0 -7 -7 -19 -15 -26 -13 -10 -13 -14 1 -28 11 -11 14 -25 9
-49 -4 -25 -1 -40 14 -60 12 -14 21 -35 21 -47 0 -11 6 -52 14 -91 8 -38 17
-131 21 -205 9 -189 0 -180 183 -180 94 0 152 4 159 11 8 8 57 8 181 0 371
-24 788 -12 1047 29 67 11 71 10 88 -11 14 -18 17 -37 15 -93 l-3 -71 -505 2
c-278 1 -679 3 -892 4 l-387 3 -5 25 c-4 21 -10 625 -7 708 1 12 6 25 11 28 6
3 10 14 10 24 0 18 18 41 32 41 4 0 8 -6 8 -14z m2934 -948 c14 -6 46 -41 71
-77 24 -36 82 -107 127 -156 149 -162 215 -239 274 -316 200 -259 326 -386
517 -517 82 -55 141 -129 153 -189 16 -82 -104 -61 -284 49 -173 106 -344 267
-436 412 -27 41 -43 56 -59 56 -33 0 -67 -28 -84 -68 -25 -59 -34 -405 -27
-998 5 -348 3 -553 -3 -557 -5 -3 -65 -9 -134 -13 -100 -5 -126 -4 -135 7 -21
26 -32 568 -29 1465 1 491 6 897 9 903 9 14 9 14 40 -1z m2530 -110 c-5 -68
-6 -460 -4 -873 2 -412 4 -894 5 -1070 l0 -320 -142 -3 -142 -3 -3 793 c-3
865 -2 848 -60 891 -36 27 -54 18 -117 -62 -99 -124 -143 -165 -271 -252 -90
-61 -117 -74 -175 -87 -119 -27 -185 -26 -185 1 0 7 15 22 33 35 74 52 104 75
142 110 22 19 87 79 145 131 143 129 218 205 270 276 25 33 72 92 105 131 33
40 98 120 145 178 46 59 113 132 149 164 35 31 69 62 75 69 6 7 17 12 25 13
11 0 12 -22 5 -122z m2888 -21 c50 -18 54 -23 26 -38 -12 -6 -26 -17 -30 -23
-10 -15 -42 5 -46 30 -2 10 -11 25 -20 32 -14 10 -13 12 9 12 13 0 41 -6 61
-13z m-7053 -6 c18 -11 17 85 13 -1616 -2 -698 -3 -1296 -3 -1327 1 -63 27
-105 58 -94 36 14 219 36 298 36 48 0 118 7 158 16 117 27 926 11 1063 -21 29
-6 42 -55 20 -71 -28 -20 -233 -25 -746 -20 -495 4 -736 -2 -883 -25 -43 -6
-80 -9 -83 -6 -3 3 -6 673 -7 1490 -1 817 -6 1489 -10 1494 -5 4 -327 10 -716
13 l-706 5 -30 22 -30 23 25 20 c41 33 91 52 160 60 97 11 1402 11 1419 1z
m6889 -33 c19 -19 14 -54 -9 -69 -22 -15 -30 -48 -30 -124 0 -46 -1 -48 -12
-25 -7 14 -20 33 -29 42 -10 10 -18 25 -18 33 0 22 40 118 57 138 19 20 25 21
41 5z m280 -41 c29 -31 49 -153 34 -205 -6 -20 -14 -47 -17 -59 -8 -29 -27
-34 -53 -13 -22 18 -22 20 -6 59 15 37 15 65 3 111 -3 11 3 14 19 12 23 -3 30
12 11 23 -10 7 -19 26 -33 73 -10 30 13 29 42 -1z m-7575 -331 c3 -8 13 -108
22 -222 15 -186 20 -215 47 -283 41 -102 36 -159 -21 -242 -38 -55 -41 -64
-41 -127 0 -37 5 -96 10 -132 6 -39 11 -371 11 -835 0 -716 6 -996 24 -1013 3
-4 61 -10 128 -14 147 -9 208 -17 224 -30 12 -10 67 -15 188 -17 51 -1 61 -4
62 -19 1 -17 -11 -19 -164 -25 -277 -11 -480 -9 -516 6 -21 10 -39 28 -54 58
l-22 44 10 925 c8 844 13 1004 33 1080 5 18 1 33 -13 52 -20 25 -20 26 -1 43
11 10 29 36 40 59 40 83 39 144 -4 164 -36 16 -62 -18 -70 -92 -8 -69 -10 -73
-31 -56 -12 10 -16 9 -21 -5 -9 -22 13 -62 37 -68 11 -3 19 -10 19 -16 0 -16
-16 -14 -34 4 -8 8 -18 15 -23 15 -5 0 -16 9 -26 20 -23 27 -25 122 -2 114 15
-6 19 3 16 43 -1 11 14 54 34 94 43 84 45 105 28 314 -7 87 -7 147 -2 158 12
22 104 25 112 3z m-395 -44 c16 -34 17 -132 20 -1207 1 -643 3 -1213 5 -1265
l2 -94 -75 -12 c-87 -14 -160 -17 -160 -6 0 4 21 21 46 37 25 17 48 41 51 55
7 23 10 334 5 480 -2 54 4 979 9 1372 1 59 -5 195 -12 303 -11 184 -14 197
-33 205 -12 5 -91 14 -176 20 -85 7 -165 17 -177 24 -26 13 -76 105 -59 107
17 2 328 14 439 17 l98 2 17 -38z m7332 -49 c0 -63 -9 -95 -26 -89 -7 3 -18
-2 -24 -10 -7 -8 -21 -14 -31 -14 -12 0 -17 -7 -16 -20 1 -20 17 -29 17 -10 0
6 5 10 10 10 6 0 10 -15 10 -32 0 -47 14 -66 34 -49 9 8 16 10 16 5 12 -1865
12 -2290 -1 -2300 -8 -7 -35 -15 -61 -18 -39 -6 -47 -4 -51 11 -7 23 -13 2071
-8 2335 2 108 7 202 12 209 4 8 21 10 48 6 23 -3 44 -1 47 4 13 22 24 5 24
-38z m522 -283 c46 -13 131 -94 152 -145 41 -97 5 -260 -68 -304 -19 -12 -36
-25 -38 -29 -2 -4 -41 -27 -89 -51 l-85 -42 -94 96 c-52 53 -99 103 -104 112
-16 30 -8 151 14 201 25 55 49 83 109 125 65 45 131 57 203 37z m-8283 -55
c50 -25 94 -72 126 -135 26 -49 26 -162 1 -215 -72 -153 -211 -206 -340 -130
-57 33 -92 74 -124 144 -22 47 -24 62 -18 125 14 146 106 233 249 235 43 1 70
-5 106 -24z m8221 -810 c6 -44 14 -95 16 -113 4 -27 13 -36 54 -57 82 -42 160
-166 160 -255 0 -99 -79 -211 -159 -225 -22 -4 -51 -15 -62 -24 -25 -20 -23 2
-34 -464 -8 -304 -9 -312 -53 -288 -11 6 -31 28 -44 48 l-23 38 3 334 3 334
-60 56 c-52 51 -60 64 -71 116 -30 140 -1 219 111 310 54 43 68 61 73 91 5 24
14 38 27 41 17 5 19 11 14 43 -4 23 -2 41 4 45 6 3 11 20 11 38 0 55 18 15 30
-68z m-8206 -195 c49 -22 101 -77 122 -127 18 -42 29 -140 20 -185 -9 -50 -89
-136 -153 -164 -102 -45 -179 -28 -258 58 -67 72 -88 132 -75 212 11 69 32
110 77 149 85 75 183 96 267 57z m-99 -1134 c22 -8 54 -15 71 -16 17 0 46 -5
64 -11 25 -9 34 -9 40 2 7 11 13 10 29 -5 12 -11 21 -22 21 -26 0 -18 -256
-53 -313 -42 -20 4 -22 30 -5 84 13 44 16 44 93 14z m3865 -26 c219 -15 241
-19 281 -50 38 -30 23 -29 214 -17 22 2 48 7 58 11 11 5 33 4 56 -4 20 -6 43
-11 51 -9 8 1 33 -1 55 -6 l40 -8 -30 -9 c-16 -5 -75 -8 -130 -7 -55 0 -167
-1 -250 -2 -82 -2 -274 -4 -425 -4 -569 0 -694 7 -707 42 -5 11 -9 11 -23 -2
-14 -13 -23 -14 -38 -6 -27 14 -18 60 12 62 236 15 673 20 836 9z m4207 -136
c142 -41 257 -151 328 -314 16 -37 20 -67 20 -170 0 -124 -1 -127 -34 -194
-62 -122 -184 -205 -331 -226 -85 -12 -139 -5 -203 27 -62 32 -176 146 -224
225 -36 61 -38 66 -41 172 -3 85 0 118 13 155 52 137 102 205 206 272 107 70
166 82 266 53z m-5587 -162 c47 -17 81 -32 75 -32 -5 -1 -35 -4 -65 -8 -56 -7
-715 -8 -780 -1 -46 5 -49 34 -4 34 17 0 37 5 45 12 21 17 241 30 459 28 179
-2 188 -3 270 -33z m3858 16 c28 -17 32 -23 20 -34 -25 -25 -131 -37 -334 -38
-185 -1 -204 1 -223 18 -24 22 -27 41 -8 53 21 14 124 20 322 21 175 0 193 -1
223 -20z m-2130 -21 c7 -9 8 -51 2 -137 -5 -69 -10 -260 -10 -424 0 -265 2
-302 17 -318 9 -10 22 -18 30 -18 24 0 114 -54 153 -91 25 -24 44 -57 59 -100
56 -167 -8 -361 -141 -430 -50 -25 -151 -26 -210 0 -49 21 -67 39 -134 136
l-49 70 1 110 c0 125 14 163 79 225 64 61 75 94 75 227 0 65 -5 195 -10 288
-6 94 -11 227 -12 298 -1 148 6 163 76 170 22 2 46 4 52 5 6 1 16 -4 22 -11z
m-3698 -20 c65 -36 135 -112 169 -183 17 -36 31 -73 31 -82 0 -32 30 -64 54
-58 27 7 1455 31 1818 31 216 0 260 -2 271 -15 20 -22 36 -174 43 -407 6 -209
5 -215 -36 -218 -8 -1 -38 -5 -66 -9 -66 -10 -79 4 -65 66 5 23 12 127 16 230
5 183 5 188 -17 207 -11 11 -36 25 -55 32 -18 6 -31 14 -28 19 12 19 -18 21
-35 2 -12 -13 -27 -18 -43 -15 -13 3 -41 -2 -62 -11 -33 -14 -151 -18 -894
-27 -952 -13 -882 -7 -902 -83 -23 -91 -150 -236 -244 -281 -46 -21 -68 -25
-146 -25 -144 0 -214 34 -295 144 -76 102 -87 140 -87 286 0 191 32 278 126
347 80 59 132 72 279 73 115 0 132 -2 168 -23z m3256 -495 c1 -268 5 -553 9
-634 l7 -147 -24 -6 c-13 -3 -51 -5 -83 -3 l-60 3 3 50 c1 28 5 311 8 630 3
364 9 584 16 592 11 14 98 22 113 10 6 -5 11 -184 11 -495z m-467 489 c11 -7
12 -37 6 -158 -4 -82 -10 -330 -14 -550 -3 -221 -10 -405 -14 -410 -5 -4 -18
4 -29 20 -11 15 -26 27 -33 27 -8 0 -20 7 -29 15 -13 13 -14 82 -12 528 1 282
6 519 10 525 8 14 94 16 115 3z m1401 -9 c3 -2 -1 -7 -8 -9 -7 -3 -19 -21 -28
-41 -19 -46 -59 -89 -90 -96 -19 -5 -24 -13 -24 -36 0 -39 -17 -39 -18 -1 0
17 -5 39 -11 50 -6 11 -11 45 -11 75 0 71 11 78 110 70 41 -4 77 -9 80 -12z
m80 3 c0 -8 -9 -15 -20 -15 -25 0 -26 17 -2 23 9 3 18 5 20 6 1 0 2 -6 2 -14z
m110 -41 c41 -8 38 -20 -7 -28 -62 -10 -100 -7 -113 9 -10 12 -8 17 11 25 23
9 39 8 109 -6z m2493 -273 c49 -5 93 -13 98 -18 21 -21 -2 -61 -44 -79 -39
-17 -91 -18 -722 -15 -448 1 -726 -2 -815 -9 -74 -7 -281 -11 -460 -11 -197 1
-331 -2 -340 -8 -12 -8 -16 -43 -20 -173 l-5 -163 -41 -1 c-23 -1 -46 1 -53 5
-21 13 -34 126 -35 301 l-1 175 70 -1 c309 -4 782 -2 985 4 326 9 1272 5 1383
-7z m-1259 -418 c88 -80 107 -184 54 -291 -42 -83 -150 -139 -236 -123 -70 14
-111 54 -138 139 -21 64 -22 77 -12 117 9 32 17 44 26 40 7 -3 20 -5 27 -5 8
0 17 -16 21 -37 27 -150 159 -180 224 -52 23 45 25 66 7 108 -27 64 -107 98
-160 69 -12 -7 -35 -13 -52 -13 -16 -1 -36 -3 -44 -6 -9 -2 -17 4 -19 15 -6
28 62 79 122 92 71 15 123 -1 180 -53z m-4037 49 c29 -9 110 -87 119 -115 4
-11 20 -43 36 -69 26 -42 29 -55 24 -91 -13 -78 -110 -202 -183 -233 -51 -22
-111 -17 -171 13 -42 21 -62 40 -96 92 -24 36 -47 76 -50 89 -4 12 -15 26 -24
30 -19 9 -295 -1 -355 -13 -30 -6 -46 -18 -76 -59 -90 -121 -119 -140 -210
-140 -58 -1 -71 3 -104 28 -21 16 -59 56 -84 89 -40 52 -46 66 -50 120 -4 60
-3 64 39 127 24 35 62 79 86 97 41 31 49 33 122 33 l79 0 48 -59 c26 -32 56
-73 66 -91 l17 -32 103 7 c56 3 153 8 215 9 l113 3 57 54 c72 69 116 100 156
109 38 10 94 10 123 2z m4763 -58 c0 -8 -4 -14 -9 -14 -12 0 -32 26 -25 33 10
9 34 -4 34 -19z m238 -55 c49 -50 53 -81 23 -175 -31 -97 -78 -163 -96 -134
-4 6 -1 10 4 10 6 0 11 7 11 16 0 9 -3 14 -7 12 -5 -2 -25 -12 -46 -21 -41
-19 -41 -36 1 -38 l27 -1 -30 -8 c-16 -4 -56 -8 -87 -9 -47 -1 -61 3 -88 25
-55 47 -71 91 -63 181 5 70 14 92 34 93 4 0 8 -29 11 -64 3 -54 8 -67 32 -90
45 -41 95 -52 140 -31 20 9 36 22 36 27 0 5 13 14 29 19 29 10 29 11 24 72 -4
41 -12 69 -24 83 -18 19 -26 74 -13 87 10 10 35 -7 82 -54z m438 -80 c4 -7 -2
-20 -16 -31 -30 -25 -200 -27 -224 -2 -34 33 -23 36 151 42 55 2 84 -1 89 -9z
m-4160 -406 c7 -10 14 -38 14 -62 0 -39 -5 -49 -48 -91 -38 -39 -56 -49 -94
-55 -28 -4 -61 -2 -82 5 -56 18 -126 115 -126 173 0 41 21 44 51 6 61 -75 80
-89 119 -89 31 0 43 7 71 39 19 21 42 51 52 65 21 31 26 32 43 9z"/>
<path d="M668 8703 c-53 -26 -104 -75 -138 -133 -27 -45 -30 -60 -30 -131 0
-127 45 -197 151 -234 57 -20 109 -19 171 5 93 35 188 152 188 231 0 53 -39
136 -87 183 -82 81 -184 113 -255 79z"/>
<path d="M8327 8700 c-30 -9 -84 -47 -118 -83 -29 -31 -76 -126 -84 -170 -10
-54 40 -155 101 -201 133 -102 325 -47 396 113 82 183 -104 398 -295 341z"/>
<path d="M2534 8676 c-63 -28 -94 -109 -64 -166 17 -31 74 -60 120 -60 34 0
48 6 76 34 29 29 34 41 34 83 0 41 -5 54 -27 75 -27 26 -73 48 -96 48 -7 -1
-26 -7 -43 -14z"/>
<path d="M3462 8676 c-55 -30 -85 -121 -58 -174 30 -58 130 -79 176 -37 50 45
41 144 -17 195 -36 32 -64 37 -101 16z"/>
<path d="M6053 8528 c2 -7 10 -13 17 -13 7 0 15 6 18 13 2 7 -5 12 -18 12 -13
0 -20 -5 -17 -12z"/>
<path d="M827 7633 c-13 -12 -7 -23 13 -23 11 0 20 7 20 15 0 15 -21 21 -33 8z"/>
<path d="M8601 7007 c-31 -15 -71 -90 -71 -133 0 -44 12 -74 45 -106 77 -77
212 23 190 139 -9 50 -33 83 -72 99 -40 17 -61 17 -92 1z"/>
<path d="M321 6941 c-69 -87 -73 -174 -9 -207 63 -33 142 -1 174 69 21 46 9
96 -35 145 -44 47 -89 45 -130 -7z"/>
<path d="M8608 3950 c-33 -36 -38 -47 -38 -88 1 -26 6 -57 14 -70 35 -64 133
-83 178 -34 67 72 63 142 -12 206 -49 40 -94 36 -142 -14z"/>
<path d="M335 3951 c-43 -9 -71 -31 -90 -73 -16 -33 -16 -38 0 -87 21 -64 74
-111 124 -111 26 0 43 9 77 44 38 38 44 49 44 86 0 52 -40 126 -73 135 -39 11
-51 12 -82 6z"/>
<path d="M8609 2937 c-22 -15 -40 -39 -52 -71 -16 -43 -16 -54 -5 -90 24 -73
112 -108 165 -64 29 24 63 87 63 117 0 47 -29 97 -67 115 -45 21 -64 20 -104
-7z"/>
<path d="M317 2959 c-27 -16 -57 -84 -57 -131 0 -84 86 -149 158 -119 33 14
82 81 82 111 0 44 -24 102 -53 126 -31 26 -96 33 -130 13z"/>
<path d="M8294 1531 c-87 -53 -158 -166 -157 -251 1 -77 64 -169 139 -205 55
-26 151 -31 211 -11 68 22 138 95 154 158 24 99 -14 211 -92 271 -74 56 -196
74 -255 38z"/>
<path d="M4506 524 c-29 -29 -56 -102 -56 -152 0 -59 39 -121 90 -142 28 -11
37 -11 78 6 51 22 86 64 103 126 13 50 -11 128 -48 158 -33 26 -143 29 -167 4z"/>
<path d="M637 1439 c-114 -60 -196 -220 -168 -326 16 -60 65 -128 118 -164 91
-63 221 -47 290 35 39 47 70 117 77 176 13 103 -54 247 -132 284 -46 23 -138
20 -185 -5z"/>
<path d="M7447 1179 c8 -8 16 -8 30 0 16 9 14 10 -11 11 -22 0 -27 -3 -19 -11z"/>
<path d="M2339 720 c-45 -48 -59 -76 -59 -125 0 -66 71 -104 151 -81 57 17 89
56 89 107 0 72 -41 126 -104 136 -33 5 -40 2 -77 -37z"/>
<path d="M1428 713 c-51 -54 -58 -73 -58 -157 0 -73 1 -76 30 -91 37 -19 40
-19 40 5 0 15 7 20 28 20 15 0 44 11 63 24 104 71 83 236 -30 236 -30 0 -44
-7 -73 -37z"/>
<path d="M1456 461 c-6 -9 44 -35 52 -27 7 8 -19 36 -34 36 -7 0 -15 -4 -18
-9z"/>
<path d="M4557 8994 c-8 -8 1 -24 14 -24 5 0 9 7 9 15 0 15 -12 20 -23 9z"/>
</g>
</svg>
